{"title":"Terminator.Genisys.2015.NEW.720P.TS.X264.AC3.HQ.Hive-CM8","uid":12136749,"size":3383147589,"categoryP":"video","categoryS":"movies","magnet":"?xt=urn:btih:11754daa5fceb8d9c2f78f363e49db7f9740f0a4&amp;dn=Terminator.Genisys.2015.NEW.720P.TS.X264.AC3.HQ.Hive-CM8&amp;tr=udp%3A%2F%2Ftracker.openbittorrent.com%3A80&amp;tr=udp%3A%2F%2Fopen.demonii.com%3A1337&amp;tr=udp%3A%2F%2Ftracker.coppersurfer.tk%3A6969&amp;tr=udp%3A%2F%2Fexodus.desync.com%3A6969","seeders":55,"leechers":5,"uploader":"xxxlavalxxx","files":5,"time":1437213537,"description":" &lt;a href=&quot;http://extraimago.com/image/1DS&quot; rel=&quot;nofollow&quot; target=&quot;_NEW&quot;&gt;http://extraimago.com/image/1DS&lt;/a&gt;\n &lt;a href=&quot;\nhttp://www.imdb.com/title/tt1340138/&quot; rel=&quot;nofollow&quot; target=&quot;_NEW&quot;&gt;\nhttp://www.imdb.com/title/tt1340138/&lt;/a&gt;\n\n\nJohn Connor sends Kyle Reese back in time to protect Sarah Connor, but when he arrives in 1984, nothing is as he expected it to be.\n\nDirector: Alan Taylor\nWriters: Laeta Kalogridis, Patrick Lussier\nStars: Arnold Schwarzenegger, Jason Clarke, Emilia Clarke \nGenres: Action | Adventure | Sci-Fi | Thriller\nCountry: USA\nLanguage: English\n\n\nTerminator.Genisys.2015.NEW.720P.TS.X264.AC3.HQ.Hive-CM8\n\nThx Hive\n\nCM8 Doing It Right The First Time\n\nSources:\n\nVideo: New 1080p HDCAM INCOMING thx\nAudio: Sweet Line Big Thx to S4NDM4N\n\nNotes:\n\nhad the pleasure of getting a new cam for Terminator, same quality as tomorrowland on daylight scenes\nits one complete recording, no movements, straight video, very good, the first hour is still darker as the rest of the movie\nbut for a cam it cant be done better than this, first hour was also darker in the cinema, but with higher quality its more than watchable now\n\nEncode:\n\nVideo had slight flicker and slight noise which is mostly removed.\nadded brightness,contrast,fixed colours without going over, no additional sharpening.\n\nhad already the great line audio which i lipsynced to my video.\nno custom intro on this one\n\nwill do me till retail\nenjoy\n\nVideo:1280x680 @bitrate 3500-8000\nAudio: English Line Stereo 2.0\nSample: yes included\n\n\nPS: a special thx to cadance who sent me a very nice audio for that movie, which i couldnt use cause the direct line is better\nthx m8\n\n\nGeneral\nComplete name                  : Terminator.Genisys.2015.NEW.720P.TS.X264.AC3.HQ.Hive-CM8.mkv\nFormat                         : Matroska\nFormat version                 : Version 2\nFile size                      : 3.10 GiB\nDuration                       : 1h 57mn\nOverall bit rate mode          : Variable\nOverall bit rate               : 3 766 Kbps\nEncoded date                   : UTC 2015-07-17 06:58:37\nWriting application            : mkvmerge v5.6.0 ('Kenya Kane') built on May 27 2012 16:44:04\nWriting library                : libebml v1.2.3 + libmatroska v1.3.0\n\nVideo\nID                             : 1\nFormat                         : AVC\nFormat/Info                    : Advanced Video Codec\nFormat profile                 : &lt;a class=&quot;__cf_email__&quot; href=&quot;/cdn-cgi/l/email-protection&quot; data-cfemail=&quot;4e062729260e027d607f&quot;&gt;[email&amp;#160;protected]&lt;/a&gt;&lt;script data-cfhash='f9e31' type=&quot;text/javascript&quot;&gt;\n/* &lt;![CDATA[ */!function(){try{var t=&quot;currentScript&quot;in document?document.currentScript:function(){for(var t=document.getElementsByTagName(&quot;script&quot;),e=t.length;e--;)if(t[e].getAttribute(&quot;data-cfhash&quot;))return t[e]}();if(t&amp;&amp;t.previousSibling){var e,r,n,i,c=t.previousSibling,a=c.getAttribute(&quot;data-cfemail&quot;);if(a){for(e=&quot;&quot;,r=parseInt(a.substr(0,2),16),n=2;a.length-n;n+=2)i=parseInt(a.substr(n,2),16)^r,e+=String.fromCharCode(i);e=document.createTextNode(e),c.parentNode.replaceChild(e,c)}t.parentNode.removeChild(t);}}catch(u){}}()/* ]]&gt; */&lt;/script&gt;\nFormat settings, CABAC         : Yes\nFormat settings, ReFrames      : 3 frames\nMuxing mode                    : Header stripping\nCodec ID                       : V_MPEG4/ISO/AVC\nDuration                       : 1h 57mn\nBit rate mode                  : Variable\nBit rate                       : 3 435 Kbps\nMaximum bit rate               : 8 000 Kbps\nWidth                          : 1 280 pixels\nHeight                         : 680 pixels\nDisplay aspect ratio           : 1.882\nFrame rate                     : 29.970 fps\nStandard                       : NTSC\nColor space                    : YUV\nChroma subsampling             : 4:2:0\nBit depth                      : 8 bits\nScan type                      : Progressive\nBits/(Pixel*Frame)             : 0.132\nStream size                    : 2.82 GiB (91%)\nLanguage                       : English\nDefault                        : Yes\nForced                         : No\nColor primaries                : BT.709-5, BT.1361, IEC 61966-2-4, SMPTE RP177\nTransfer characteristics       : BT.709-5, BT.1361\nMatrix coefficients            : BT.709-5, BT.1361, IEC 61966-2-4 709, SMPTE RP177\n\nAudio\nID                             : 2\nFormat                         : AC-3\nFormat/Info                    : Audio Coding 3\nMode extension                 : CM (complete main)\nFormat settings, Endianness    : Big\nMuxing mode                    : Header stripping\nCodec ID                       : A_AC3\nDuration                       : 1h 57mn\nBit rate mode                  : Constant\nBit rate                       : 256 Kbps\nChannel(s)                     : 2 channels\nChannel positions              : Front: L R\nSampling rate                  : 48.0 KHz\nBit depth                      : 16 bits\nCompression mode               : Lossy\nDelay relative to video        : 14ms\nStream size                    : 216 MiB (7%)\nLanguage                       : English\nDefault                        : Yes\nForced                         : No\n\n &lt;a href=&quot;\nhttp://extraimago.com/image/1Dq&quot; rel=&quot;nofollow&quot; target=&quot;_NEW&quot;&gt;\nhttp://extraimago.com/image/1Dq&lt;/a&gt; &lt;a href=&quot;\nhttp://extraimago.com/image/1Dy&quot; rel=&quot;nofollow&quot; target=&quot;_NEW&quot;&gt;\nhttp://extraimago.com/image/1Dy&lt;/a&gt; &lt;a href=&quot;\nhttp://extraimago.com/image/1DL&quot; rel=&quot;nofollow&quot; target=&quot;_NEW&quot;&gt;\nhttp://extraimago.com/image/1DL&lt;/a&gt; &lt;a href=&quot;\nhttp://extraimago.com/image/1DQ&quot; rel=&quot;nofollow&quot; target=&quot;_NEW&quot;&gt;\nhttp://extraimago.com/image/1DQ&lt;/a&gt; &lt;a href=&quot;\nhttp://extraimago.com/image/1DR&quot; rel=&quot;nofollow&quot; target=&quot;_NEW&quot;&gt;\nhttp://extraimago.com/image/1DR&lt;/a&gt; &lt;a href=&quot;\nhttp://extraimago.com/image/1Dm&quot; rel=&quot;nofollow&quot; target=&quot;_NEW&quot;&gt;\nhttp://extraimago.com/image/1Dm&lt;/a&gt; &lt;a href=&quot;\nhttp://extraimago.com/image/1Di&quot; rel=&quot;nofollow&quot; target=&quot;_NEW&quot;&gt;\nhttp://extraimago.com/image/1Di&lt;/a&gt; &lt;a href=&quot;\nhttp://extraimago.com/image/1Dl&quot; rel=&quot;nofollow&quot; target=&quot;_NEW&quot;&gt;\nhttp://extraimago.com/image/1Dl&lt;/a&gt; &lt;a href=&quot;\nhttp://extraimago.com/image/1DI&quot; rel=&quot;nofollow&quot; target=&quot;_NEW&quot;&gt;\nhttp://extraimago.com/image/1DI&lt;/a&gt;","torrent":{"xt":"urn:btih:11754daa5fceb8d9c2f78f363e49db7f9740f0a4","amp;dn":"Terminator.Genisys.2015.NEW.720P.TS.X264.AC3.HQ.Hive-CM8","amp;tr":["udp%3A%2F%2Ftracker.openbittorrent.com%3A80","udp%3A%2F%2Fopen.demonii.com%3A1337","udp%3A%2F%2Ftracker.coppersurfer.tk%3A6969","udp%3A%2F%2Fexodus.desync.com%3A6969"],"infoHash":"11754daa5fceb8d9c2f78f363e49db7f9740f0a4","infoHashBuffer":{"type":"Buffer","data":[17,117,77,170,95,206,184,217,194,247,143,54,62,73,219,127,151,64,240,164]},"announce":[],"urlList":[]}}